<svg xmlns="http://www.w3.org/2000/svg" width="157" height="147" viewBox="0 0 157 147">
    <g fill="#164398">
        <path d="M136 68c0-1.358-.04-2.71-.12-4.058l-1.996.118c.077 1.308.116 2.621.116 3.94h2zm-1.471-14.134c-.28-1.325-.6-2.64-.958-3.943l-1.929.53c.348 1.265.658 2.54.93 3.827l1.957-.414zm-4.384-13.512c-.551-1.237-1.139-2.456-1.763-3.656l-1.774.922c.605 1.165 1.175 2.348 1.71 3.548l1.827-.814zm-7.092-12.277c-.796-1.095-1.624-2.166-2.483-3.212l-1.545 1.27c.834 1.015 1.638 2.055 2.41 3.118l1.618-1.176zm-9.527-10.59c-1.005-.905-2.037-1.782-3.094-2.627l-1.249 1.562c1.026.82 2.028 1.671 3.003 2.551l1.34-1.485zm-11.414-8.325c-1.17-.68-2.36-1.324-3.569-1.933l-.9 1.786c1.174.591 2.329 1.217 3.464 1.877l1.005-1.73zm-12.98-5.814c-1.285-.42-2.584-.802-3.895-1.144l-.506 1.935c1.272.332 2.533.703 3.78 1.11l.621-1.901zM75.216.378C73.873.237 72.524.135 71.168.073l-.092 1.997c1.316.06 2.627.16 3.93.297l.21-1.989zM60.998.356c-1.35.138-2.692.316-4.026.534l.322 1.974c1.295-.211 2.598-.384 3.908-.518l-.204-1.99zm-13.9 2.917c-1.29.416-2.564.87-3.824 1.363L44 6.499c1.223-.478 2.46-.919 3.71-1.322l-.613-1.904zM34.127 9.024c-1.173.675-2.326 1.385-3.456 2.13l1.1 1.67c1.096-.722 2.215-1.411 3.353-2.066l-.997-1.734zm-11.52 8.344c-1.007.904-1.988 1.838-2.94 2.8l1.422 1.406c.924-.933 1.876-1.84 2.853-2.717l-1.335-1.489zM13.06 27.922c-.799 1.093-1.565 2.21-2.297 3.348l1.683 1.082c.71-1.105 1.454-2.189 2.229-3.25l-1.615-1.18zm-7.11 12.22c-.555 1.234-1.072 2.484-1.553 3.75l1.87.71c.466-1.229.969-2.443 1.507-3.64l-1.824-.82zM1.515 53.659c-.283 1.321-.528 2.653-.733 3.993l1.978.302c.198-1.3.435-2.593.71-3.875l-1.955-.42zM0 67.818v.18c0 1.298.036 2.59.109 3.877l1.996-.112c-.052-.937-.085-1.877-.098-2.82L2 67.822l-2-.005zm1.433 14.135c.277 1.327.593 2.644.948 3.949l1.93-.526c-.345-1.266-.651-2.544-.92-3.832l-1.958.409zM5.782 95.48c.548 1.238 1.132 2.459 1.753 3.661l1.777-.917c-.602-1.167-1.17-2.352-1.701-3.553l-1.83.809zm7.06 12.297c.793 1.097 1.618 2.17 2.475 3.22l1.549-1.266c-.832-1.018-1.633-2.06-2.403-3.125l-1.62 1.17zm9.495 10.61c1.003.91 2.032 1.788 3.087 2.636l1.253-1.558c-1.024-.823-2.023-1.677-2.996-2.56l-1.344 1.482zm11.396 8.36c1.168.682 2.357 1.33 3.565 1.942l.904-1.784c-1.172-.594-2.326-1.222-3.46-1.885l-1.01 1.726zm12.962 5.847c1.284.424 2.582.809 3.892 1.155l.51-1.934c-1.27-.336-2.53-.71-3.776-1.12l-.626 1.9zm13.915 3.008c1.343.145 2.692.25 4.047.316l.097-1.997c-1.316-.064-2.626-.167-3.929-.307l-.215 1.988zM85.562 70.158l.102.075 16.163 13.524 1.466-1.464c.39-.39 1.024-.39 1.414 0 .36.36.388.928.083 1.32l-.083.094-1.339 1.339 12.982 10.863 9.455-9.453c1.507-1.508 3.676-1.952 5.573-1.333l.047-.037.513-.356c.29-.2.563-.383.822-.55l-7.468-7.473c-.39-.391-.39-1.024.001-1.415.361-.36.928-.387 1.32-.082l.095.083 7.864 7.871c.953-.405 1.604-.378 2.118.113.535.51.576 1.173.168 2.165l7.85 7.85c.39.391.39 1.025 0 1.415-.361.36-.929.388-1.32.083l-.095-.083-7.43-7.429c-.245.392-.525.818-.838 1.282-.036.053-.077.102-.12.146.578 1.877.125 4.004-1.36 5.49l-9.663 9.66 15.179 17.667 1.232-1.23c.39-.39 1.024-.39 1.414 0 .36.36.388.928.083 1.32l-.083.094-1.339 1.339 10.39 12.093c.311.362.32.886.039 1.256l-.084.097-5.123 5.21c-.345.35-.89.394-1.284.118l-.096-.075-30.711-27.506-8.689 8.69-.14.117-12.184 8.402 9.302 11.901c.286.366.28.875 0 1.233l-.084.093-3.059 3.035c-.34.337-.865.382-1.255.125l-.102-.078-12.636-10.907-1.923 1.328c-.895.617-1.964-.428-1.436-1.32l.06-.092 1.134-1.559-11.23-12.487c-.333-.37-.34-.922-.034-1.298l.083-.09 3.16-3.052c.32-.309.802-.366 1.182-.153l.101.064 12.503 9.095 8.717-11.977.101-.119 8.426-8.423-.06-.05-.089-.09-26.102-30.04c-.32-.367-.324-.907-.026-1.28l.08-.088 5.023-4.932c.336-.33.852-.378 1.24-.13zm5.275 62.427l-4.483 3.092 11.54 9.961 1.771-1.757-8.828-11.296zm31.627-27.31l-7.549 7.548 29.918 26.795 3.809-3.874-10.317-12.006-.032-.03c-.046-.047-.087-.096-.122-.149l-15.707-18.284zm-47.213 15.027l-1.863 1.798 10.302 11.454 3.385-4.651-11.824-8.601zm50.577-31.042l-27.287 27.287-8.833 12.137 4.96-4.884c.394-.388 1.027-.383 1.415.01.357.364.38.931.073 1.321l-.084.094-4.478 4.409 11.864-8.182 27.205-27.205-4.835-4.987zM85.075 72.348l-3.704 3.638 25.486 29.33.038.049 8.036-8.036-29.856-24.981zM132.13 87.87c-1.356-1.356-3.555-1.356-4.91 0l.023-.024 4.835 4.986.052-.051c1.26-1.26 1.35-3.245.27-4.608l-.13-.155zm1.23-1.686l-.061.04c.084.075.165.152.245.232.097.096.19.196.278.298.222-.344.416-.659.582-.944-.007-.002-.012-.006-.017-.01l-.095-.083-.076-.08c-.26.159-.546.34-.855.547z" transform="translate(-1 -1)"/>
    </g>
</svg>
