<svg xmlns="http://www.w3.org/2000/svg" xmlns:xlink="http://www.w3.org/1999/xlink" width="1440" height="830" viewBox="0 0 1440 830">
    <defs>
        <path id="prefix__a" d="M0.781 0H1440.781V830H0.781z"/>
    </defs>
    <g fill="none" fill-rule="evenodd" transform="translate(-.781)">
        <mask id="prefix__b" fill="#fff">
            <use xlink:href="#prefix__a"/>
        </mask>
        <use fill="#164398" xlink:href="#prefix__a"/>
        <path stroke="#F5C546" stroke-dasharray="4 10" stroke-linecap="round" stroke-linejoin="round" stroke-width="2" d="M174.29 666c37.614 35.185 85.072 67.9 142.374 98.145" mask="url(#prefix__b)"/>
        <path stroke="#F5C546" stroke-dasharray="4 10" stroke-width="2" d="M1316.204 229.945c-56.143 31.984-82.883 72.902-80.222 122.754 3.993 74.778 76.55 100.978 108.912 83.281 32.362-17.696 32.503-86.984-28.69-77.535-61.194 9.45-69.15 154.47 78.399 210.574 98.365 37.404 143.086 49.094 134.163 35.07" mask="url(#prefix__b)" transform="rotate(-16 1382.84 419.885)"/>
        <path stroke="#F5C546" stroke-dasharray="4 10" stroke-width="2" d="M354.023-23C372.805 78 191.797 297 96.29 249 .781 201 78.931 111.5 124.625 144S219.515 321.18-15 455M1173.328 776.055c90.048-28.85 159.886-4.735 209.513 72.343" mask="url(#prefix__b)"/>
        <g mask="url(#prefix__b)">
            <path fill="#FFF" fill-rule="nonzero" d="M1275.343 184.158l.102.075 16.163 13.524 1.466-1.464c.39-.39 1.024-.39 1.414 0 .36.36.389.928.084 1.32l-.084.094-1.339 1.339 12.982 10.863 9.455-9.453c1.508-1.508 3.676-1.952 5.573-1.333l.047-.037.513-.356c.29-.2.563-.383.822-.55l-7.467-7.473c-.39-.391-.39-1.024 0-1.415.361-.36.928-.387 1.32-.082l.095.083 7.865 7.871c.952-.405 1.603-.378 2.118.113.534.51.576 1.173.167 2.165l7.85 7.85c.39.391.39 1.025 0 1.415-.361.36-.928.388-1.32.083l-.095-.083-7.43-7.429c-.245.392-.525.818-.838 1.282-.036.053-.077.102-.12.146.578 1.877.125 4.004-1.36 5.49l-9.663 9.66 15.18 17.667 1.231-1.23c.39-.39 1.024-.39 1.414 0 .36.36.389.928.084 1.32l-.084.094-1.339 1.339 10.39 12.093c.311.362.32.886.04 1.256l-.085.097-5.122 5.21c-.346.35-.89.394-1.285.118l-.095-.075-30.712-27.506-8.689 8.69-.14.117-12.184 8.402 9.302 11.901c.286.366.28.875 0 1.233l-.083.093-3.06 3.035c-.34.337-.865.382-1.254.125l-.103-.078-12.636-10.907-1.922 1.328c-.896.617-1.965-.428-1.437-1.32l.06-.092 1.134-1.559-11.23-12.487c-.333-.37-.34-.922-.034-1.298l.083-.09 3.16-3.052c.321-.309.802-.366 1.183-.153l.1.064 12.503 9.095 8.717-11.977.102-.119 8.425-8.423-.06-.05-.089-.09-26.102-30.04c-.32-.367-.324-.907-.026-1.28l.08-.088 5.023-4.932c.336-.33.852-.378 1.24-.13zm5.275 62.427l-4.483 3.092 11.54 9.961 1.771-1.757-8.828-11.296zm31.627-27.31l-7.549 7.548 29.918 26.795 3.81-3.874-10.318-12.006-.032-.03c-.046-.047-.087-.096-.122-.149l-15.707-18.284zm-47.213 15.027l-1.863 1.798 10.302 11.454 3.385-4.651-11.824-8.601zm50.577-31.042l-27.287 27.287-8.833 12.137 4.96-4.884c.394-.388 1.027-.383 1.415.01.358.364.381.931.073 1.321l-.084.094-4.478 4.409 11.864-8.182 27.205-27.205-4.835-4.987zm-40.753-16.912l-3.704 3.638 25.486 29.33.038.049 8.036-8.036-29.856-24.981zm47.055 15.522c-1.356-1.356-3.554-1.356-4.91 0l.023-.024 4.835 4.986.052-.051c1.26-1.26 1.35-3.245.27-4.608l-.13-.155zm1.231-1.686l-.062.04c.084.075.166.152.246.232.097.096.189.196.277.298.222-.344.416-.659.582-.944-.007-.002-.012-.006-.017-.01l-.094-.083-.077-.08c-.26.159-.545.34-.855.547z"/>
        </g>
        <g mask="url(#prefix__b)">
            <path fill="#FFF" fill-rule="nonzero" d="M96.447 648.4l.075-.103 13.524-16.163-1.464-1.466c-.39-.39-.39-1.024 0-1.414.36-.36.928-.388 1.32-.083l.094.083 1.34 1.339 10.862-12.982-9.453-9.455c-1.508-1.508-1.952-3.676-1.333-5.573l-.037-.047-.356-.513c-.2-.29-.383-.563-.55-.822l-7.473 7.467c-.391.39-1.024.39-1.414 0-.36-.361-.388-.928-.083-1.32l.083-.095 7.872-7.864c-.406-.953-.38-1.604.112-2.118.51-.535 1.173-.576 2.165-.168l7.851-7.85c.39-.39 1.024-.39 1.414 0 .36.361.388.929.083 1.32l-.083.095-7.429 7.43c.392.245.818.525 1.282.838.053.036.102.077.147.12 1.876-.578 4.003-.125 5.488 1.36l9.661 9.663 17.667-15.18-1.23-1.231c-.39-.39-.39-1.024 0-1.414.36-.36.928-.388 1.32-.083l.094.083 1.34 1.339 12.092-10.39c.362-.311.886-.32 1.256-.039l.097.084 5.21 5.122c.35.346.394.89.119 1.285l-.076.096-27.506 30.71 8.69 8.69.117.14 8.402 12.184 11.901-9.302c.366-.286.876-.28 1.233 0l.093.084 3.035 3.059c.337.34.383.865.125 1.255l-.078.102-10.907 12.636 1.328 1.923c.617.895-.428 1.964-1.32 1.436l-.092-.06-1.559-1.134-12.487 11.23c-.37.333-.921.34-1.298.034l-.09-.083-3.051-3.16c-.31-.32-.367-.802-.154-1.182l.064-.101 9.095-12.503-11.977-8.717-.119-.102-8.423-8.425-.05.06-.09.089-30.039 26.102c-.368.32-.908.324-1.28.026l-.09-.08-4.931-5.023c-.33-.336-.378-.852-.13-1.24zm62.427-5.276l3.092 4.483 9.961-11.54-1.757-1.771-11.296 8.828zm-27.31-31.627l7.548 7.549 26.795-29.918-3.874-3.81-12.006 10.318-.03.032c-.047.046-.096.087-.148.122l-18.285 15.707zm15.027 47.213l1.798 1.863 11.454-10.302-4.65-3.385-8.602 11.824zm-31.042-50.577l27.287 27.287 12.137 8.833-4.884-4.96c-.388-.394-.383-1.027.01-1.415.364-.357.931-.38 1.321-.073l.094.084 4.41 4.478-8.183-11.864-27.205-27.205-4.987 4.835zm-16.912 40.753l3.638 3.704 29.33-25.486.05-.038-8.037-8.036-24.98 29.856zm15.522-47.055c-1.356 1.356-1.356 3.555 0 4.91l-.024-.023 4.986-4.835-.051-.052c-1.26-1.26-3.245-1.35-4.608-.27l-.155.13zm-1.686-1.231l.04.062c.075-.084.152-.165.232-.245.096-.097.196-.19.298-.278-.344-.222-.659-.416-.944-.582-.002.007-.006.012-.01.017l-.083.094-.08.077c.159.26.34.546.547.855z"/>
        </g>
    </g>
</svg>
