<svg xmlns="http://www.w3.org/2000/svg" width="65" height="65" viewBox="0 0 65 65">
    <g fill="none" fill-rule="evenodd" stroke-width="2">
        <path stroke="#F5C546" stroke-linecap="round" stroke-linejoin="round" d="M1.214 15.117v11.448c4.75 3.268 7.126 6.536 7.126 9.803 0 3.268-2.376 6.536-7.126 9.804v11.945h62.578V46.172c-4.75-3.268-7.125-6.536-7.125-9.804 0-3.267 2.375-6.535 7.125-9.803V15.117H1.214zM15.496 15.117L59.125 6 61.236 15.117"/>
        <path stroke="#164398" stroke-linecap="round" stroke-linejoin="round" d="M30.968 34.421L30.968 25 33.752 25 35.968 34.421M30.968 39.278L30.968 48.181 33.931 48.181 35.968 39.278M43.566 37c0 1.105-.895 2-2 2H27.123h0l-9.557-2.153L27.123 35h14.443c1.105 0 2 .895 2 2zM43.566 36.005c1.364.329 2.046.66 2.046.995 0 .334-.682.67-2.046 1.008"/>
        <path stroke="#164398" stroke-linecap="round" d="M44.589 32.5L44.589 36.005M44.589 38L44.589 41.505"/>
        <path fill="#FFF" stroke="#164398" stroke-linejoin="round" d="M18.705 31.659L18.705 41.865 20.333 41.865 21.936 37 20.67 31.659z"/>
    </g>
</svg>
