<svg xmlns="http://www.w3.org/2000/svg" width="40" height="40" viewBox="0 0 40 40">
    <g fill="none" fill-rule="evenodd">
        <circle cx="20" cy="20" r="20" fill="#F5C546"/>
        <path fill="#FFF" d="M27.64 21.168v-1.582c0-.095-.048-.198-.123-.217l-5.991-3.975c-.104-.047-.122-.123-.122-.217v-4.521c0-.773-.622-1.394-1.395-1.394-.772 0-1.394.621-1.394 1.394v4.672c0 .094-.019.17-.122.217l-6 4.116c-.076.075-.123.122-.123.217l.019 1.658c0 .188.188.339.358.263l5.51-2.138c.17-.075.358.075.358.264v4.954c0 .095-.047.198-.122.217l-1.978 1.3c-.104.047-.123.123-.123.217v.96c0 .189.17.32.358.264l2.43-.848c.029.029.057 0 .095 0h1.394c.056 0 .056 0 .075.02l2.496.819c.17.075.358-.076.358-.264v-.81c0-.094-.047-.198-.122-.217l-1.997-1.318c-.104-.047-.123-.123-.123-.217v-5.256c0-.189.17-.32.358-.264l5.54 1.922c.216.084.385-.047.385-.236z"/>
    </g>
</svg>
